<svg width="43" height="42" viewBox="0 0 43 42" fill="none" xmlns="http://www.w3.org/2000/svg">
<g clip-path="url(#clip0_6451_20888)">
<path d="M21.5859 12.0011C24.3896 12.0011 24.7216 12.0117 25.8288 12.0622C26.8525 12.109 27.4085 12.28 27.7785 12.4238C28.2686 12.6143 28.6184 12.8418 28.9858 13.2092C29.3532 13.5766 29.5808 13.9265 29.7712 14.4165C29.915 14.7866 30.0861 15.3425 30.1328 16.3662C30.1833 17.4735 30.194 17.8055 30.194 20.6092C30.194 23.4128 30.1833 23.7448 30.1328 24.852C30.0861 25.8758 29.915 26.4317 29.7712 26.8018C29.5808 27.2918 29.3532 27.6417 28.9858 28.0091C28.6184 28.3765 28.2686 28.604 27.7785 28.7945C27.4085 28.9383 26.8525 29.1093 25.8288 29.1561C24.7218 29.2066 24.3897 29.2172 21.5859 29.2172C18.7821 29.2172 18.4501 29.2066 17.343 29.1561C16.3193 29.1093 15.7633 28.9383 15.3933 28.7945C14.9032 28.604 14.5534 28.3765 14.186 28.0091C13.8186 27.6417 13.591 27.2918 13.4006 26.8018C13.2568 26.4317 13.0857 25.8758 13.039 24.8521C12.9885 23.7448 12.9778 23.4128 12.9778 20.6092C12.9778 17.8055 12.9885 17.4735 13.039 16.3663C13.0857 15.3425 13.2568 14.7866 13.4006 14.4165C13.591 13.9265 13.8186 13.5766 14.186 13.2092C14.5534 12.8418 14.9032 12.6143 15.3933 12.4238C15.7633 12.28 16.3193 12.109 17.343 12.0622C18.4502 12.0117 18.7823 12.0011 21.5859 12.0011ZM21.5859 10.1091C18.7343 10.1091 18.3767 10.1212 17.2568 10.1723C16.1392 10.2233 15.3759 10.4008 14.708 10.6604C14.0175 10.9287 13.432 11.2878 12.8482 11.8715C12.2645 12.4552 11.9055 13.0408 11.6372 13.7312C11.3776 14.3992 11.2001 15.1624 11.1491 16.28C11.098 17.3999 11.0859 17.7575 11.0859 20.6092C11.0859 23.4608 11.098 23.8184 11.1491 24.9383C11.2001 26.0559 11.3776 26.8192 11.6372 27.4871C11.9055 28.1775 12.2645 28.7631 12.8482 29.3468C13.432 29.9305 14.0175 30.2896 14.708 30.5579C15.3759 30.8175 16.1392 30.995 17.2568 31.046C18.3767 31.0971 18.7343 31.1091 21.5859 31.1091C24.4376 31.1091 24.7951 31.0971 25.915 31.046C27.0327 30.995 27.7959 30.8175 28.4638 30.5579C29.1543 30.2896 29.7399 29.9305 30.3236 29.3468C30.9073 28.7631 31.2663 28.1775 31.5347 27.4871C31.7943 26.8192 31.9717 26.0559 32.0228 24.9383C32.0739 23.8184 32.0859 23.4608 32.0859 20.6092C32.0859 17.7575 32.0739 17.3999 32.0228 16.28C31.9717 15.1624 31.7943 14.3992 31.5347 13.7312C31.2663 13.0408 30.9073 12.4552 30.3236 11.8715C29.7399 11.2878 29.1543 10.9287 28.4638 10.6604C27.7959 10.4008 27.0327 10.2233 25.915 10.1723C24.7951 10.1212 24.4376 10.1091 21.5859 10.1091ZM21.5859 15.2172C18.6081 15.2172 16.194 17.6313 16.194 20.6092C16.194 23.587 18.6081 26.0011 21.5859 26.0011C24.5638 26.0011 26.9778 23.587 26.9778 20.6092C26.9778 17.6313 24.5638 15.2172 21.5859 15.2172ZM21.5859 24.1092C19.6529 24.1092 18.0859 22.5421 18.0859 20.6092C18.0859 18.6762 19.6529 17.1091 21.5859 17.1091C23.5189 17.1091 25.0859 18.6762 25.0859 20.6092C25.0859 22.5421 23.5189 24.1092 21.5859 24.1092ZM28.4508 15.0042C28.4508 15.7001 27.8867 16.2642 27.1909 16.2642C26.495 16.2642 25.9308 15.7001 25.9308 15.0042C25.9308 14.3083 26.495 13.7442 27.1909 13.7442C27.8867 13.7442 28.4508 14.3083 28.4508 15.0042Z" fill="#0A0A08"/>
</g>
<defs>
<clipPath id="clip0_6451_20888">
<rect width="21" height="21" fill="white" transform="translate(11.0859 10.1091)"/>
</clipPath>
</defs>
</svg>
