<svg width="25" height="24" viewBox="0 0 25 24" fill="none" xmlns="http://www.w3.org/2000/svg">
<mask id="mask0_6001_22766" style="mask-type:alpha" maskUnits="userSpaceOnUse" x="0" y="0" width="25" height="24">
<rect x="0.5" width="24" height="24" fill="#D9D9D9"/>
</mask>
<g mask="url(#mask0_6001_22766)">
<path d="M12.5 22C11.1333 22 9.84167 21.7375 8.625 21.2125C7.40833 20.6875 6.34583 19.9708 5.4375 19.0625C4.52917 18.1542 3.8125 17.0917 3.2875 15.875C2.7625 14.6583 2.5 13.3667 2.5 12C2.5 10.6167 2.7625 9.32083 3.2875 8.1125C3.8125 6.90417 4.52917 5.84583 5.4375 4.9375C6.34583 4.02917 7.40833 3.3125 8.625 2.7875C9.84167 2.2625 11.1333 2 12.5 2C13.8833 2 15.1792 2.2625 16.3875 2.7875C17.5958 3.3125 18.6542 4.02917 19.5625 4.9375C20.4708 5.84583 21.1875 6.90417 21.7125 8.1125C22.2375 9.32083 22.5 10.6167 22.5 12C22.5 13.3667 22.2375 14.6583 21.7125 15.875C21.1875 17.0917 20.4708 18.1542 19.5625 19.0625C18.6542 19.9708 17.5958 20.6875 16.3875 21.2125C15.1792 21.7375 13.8833 22 12.5 22ZM12.5 19.95C12.9333 19.35 13.3083 18.725 13.625 18.075C13.9417 17.425 14.2 16.7333 14.4 16H10.6C10.8 16.7333 11.0583 17.425 11.375 18.075C11.6917 18.725 12.0667 19.35 12.5 19.95ZM9.9 19.55C9.6 19 9.3375 18.4292 9.1125 17.8375C8.8875 17.2458 8.7 16.6333 8.55 16H5.6C6.08333 16.8333 6.6875 17.5583 7.4125 18.175C8.1375 18.7917 8.96667 19.25 9.9 19.55ZM15.1 19.55C16.0333 19.25 16.8625 18.7917 17.5875 18.175C18.3125 17.5583 18.9167 16.8333 19.4 16H16.45C16.3 16.6333 16.1125 17.2458 15.8875 17.8375C15.6625 18.4292 15.4 19 15.1 19.55ZM4.75 14H8.15C8.1 13.6667 8.0625 13.3375 8.0375 13.0125C8.0125 12.6875 8 12.35 8 12C8 11.65 8.0125 11.3125 8.0375 10.9875C8.0625 10.6625 8.1 10.3333 8.15 10H4.75C4.66667 10.3333 4.60417 10.6625 4.5625 10.9875C4.52083 11.3125 4.5 11.65 4.5 12C4.5 12.35 4.52083 12.6875 4.5625 13.0125C4.60417 13.3375 4.66667 13.6667 4.75 14ZM10.15 14H14.85C14.9 13.6667 14.9375 13.3375 14.9625 13.0125C14.9875 12.6875 15 12.35 15 12C15 11.65 14.9875 11.3125 14.9625 10.9875C14.9375 10.6625 14.9 10.3333 14.85 10H10.15C10.1 10.3333 10.0625 10.6625 10.0375 10.9875C10.0125 11.3125 10 11.65 10 12C10 12.35 10.0125 12.6875 10.0375 13.0125C10.0625 13.3375 10.1 13.6667 10.15 14ZM16.85 14H20.25C20.3333 13.6667 20.3958 13.3375 20.4375 13.0125C20.4792 12.6875 20.5 12.35 20.5 12C20.5 11.65 20.4792 11.3125 20.4375 10.9875C20.3958 10.6625 20.3333 10.3333 20.25 10H16.85C16.9 10.3333 16.9375 10.6625 16.9625 10.9875C16.9875 11.3125 17 11.65 17 12C17 12.35 16.9875 12.6875 16.9625 13.0125C16.9375 13.3375 16.9 13.6667 16.85 14ZM16.45 8H19.4C18.9167 7.16667 18.3125 6.44167 17.5875 5.825C16.8625 5.20833 16.0333 4.75 15.1 4.45C15.4 5 15.6625 5.57083 15.8875 6.1625C16.1125 6.75417 16.3 7.36667 16.45 8ZM10.6 8H14.4C14.2 7.26667 13.9417 6.575 13.625 5.925C13.3083 5.275 12.9333 4.65 12.5 4.05C12.0667 4.65 11.6917 5.275 11.375 5.925C11.0583 6.575 10.8 7.26667 10.6 8ZM5.6 8H8.55C8.7 7.36667 8.8875 6.75417 9.1125 6.1625C9.3375 5.57083 9.6 5 9.9 4.45C8.96667 4.75 8.1375 5.20833 7.4125 5.825C6.6875 6.44167 6.08333 7.16667 5.6 8Z" fill="#1C1B1F"/>
</g>
</svg>
