<svg width="42" height="42" viewBox="0 0 42 42" fill="none" xmlns="http://www.w3.org/2000/svg">
<g clip-path="url(#clip0_6451_20885)">
<path d="M12.4648 14.4714C12.4648 13.9329 12.6542 13.4888 13.033 13.1388C13.4118 12.7889 13.9042 12.6139 14.5102 12.6139C15.1054 12.6139 15.587 12.7862 15.9549 13.1308C16.3337 13.4861 16.5231 13.9491 16.5231 14.5198C16.5231 15.0367 16.3391 15.4674 15.9712 15.812C15.5924 16.1673 15.0946 16.345 14.4777 16.345H14.4615C13.8663 16.345 13.3847 16.1673 13.0168 15.812C12.6488 15.4566 12.4648 15.0097 12.4648 14.4714ZM12.6759 28.6042V17.8148H16.2796V28.6042H12.6759ZM18.2763 28.6042H21.88V22.5796C21.88 22.2027 21.9233 21.912 22.0099 21.7074C22.1614 21.3413 22.3913 21.0317 22.6998 20.7786C23.0082 20.5256 23.3951 20.3991 23.8604 20.3991C25.0725 20.3991 25.6785 21.212 25.6785 22.838V28.6042H29.2823V22.4181C29.2823 20.8244 28.9035 19.6157 28.146 18.792C27.3884 17.9682 26.3874 17.5564 25.1429 17.5564C23.7468 17.5564 22.6592 18.154 21.88 19.3492V19.3815H21.8638L21.88 19.3492V17.8148H18.2763C18.2979 18.1593 18.3087 19.2307 18.3087 21.029C18.3087 22.8272 18.2979 25.3523 18.2763 28.6042Z" fill="black"/>
</g>
<defs>
<clipPath id="clip0_6451_20885">
<rect width="16.8174" height="15.9903" fill="white" transform="translate(12.4648 12.6139)"/>
</clipPath>
</defs>
</svg>
